<svg xmlns="http://www.w3.org/2000/svg" viewBox="0 0 100 100">
  <!-- fox, idle-full: grown: the brush at full width, chest deep cream, ears tall. -->
  <defs>
    <filter id="rough-fox-idle-full" x="-10%" y="-10%" width="120%" height="120%">
      <feTurbulence type="fractalNoise" baseFrequency="3.4" numOctaves="3" seed="4" result="n"/>
      <feDisplacementMap in="SourceGraphic" in2="n" scale="0.18" xChannelSelector="R" yChannelSelector="G"/>
    </filter>
  </defs>
  <g filter="url(#rough-fox-idle-full)">

    <path d="M14 80 L86 80" stroke="#3a3626" stroke-width="1.2" fill="none" stroke-linecap="round" opacity=".5"/>
    <path d="M30 78 C25 64 32 54 44 52 L63 52 C70 54 72.5 63 67 72" stroke="#3a3626" stroke-width="1.6" fill="none" stroke-linecap="round"/>
    <g class="c-head">
      <path d="M63 52 C58.5 42 62.5 32.5 73 31 L82 41.5 L67 50" stroke="#3a3626" stroke-width="1.6" fill="#efe6c9" stroke-linejoin="round"/>
      <path class="c-ear" d="M63 37.5 L58.5 20.5 L69.5 32.5" stroke="#3a3626" stroke-width="1.6" fill="#a9876a" fill-opacity=".65" stroke-linejoin="round"/>
      <path class="c-ear-far" d="M71.5 32.5 L78.5 19 L76 35" stroke="#3a3626" stroke-width="1.6" fill="#a9876a" fill-opacity=".65" stroke-linejoin="round"/>
      <path d="M69 39.5 l3 0" stroke="#3a3626" stroke-width="1.6" stroke-linecap="round"/>
      <circle cx="82" cy="41.5" r="1.5" fill="#3a3626"/>
    </g>
    <path d="M56 50 C60 54.5 64.5 57.5 68 58 C64.5 64 58 66 53 62.5" stroke="#3a3626" stroke-width="1.2" fill="#efe6c9" fill-opacity=".9" stroke-linecap="round" opacity=".85"/>
    <path d="M34 62 L34 78 M44 64 L44.5 78 M60 66 L60 78 M67 72 L66.5 78" stroke="#3a3626" stroke-width="1.6" stroke-linecap="round"/>
    <path d="M30 78 L38 78 M40.5 78 L48 78 M56.5 78 L70 78" stroke="#3a3626" stroke-width="1.6" stroke-linecap="round"/>
    <g class="c-tail"><path d="M30 62 C18 58 8 46 12.5 35 C17 28 26.5 32.5 24 40 C22 46.5 26.5 54 34 57" stroke="#3a3626" stroke-width="1.6" fill="#a9876a" fill-opacity=".6" stroke-linecap="round" stroke-linejoin="round"/>
    <path d="M12.5 35 C14 30.5 19.5 30 22.5 33" stroke="#3a3626" stroke-width="1.6" fill="#efe6c9" stroke-linecap="round"/></g>
    <path d="M48 55 C46 61 46 68 48 73" stroke="#3a3626" stroke-width="1.2" fill="none" stroke-linecap="round" opacity=".5"/>

  </g>
  <!-- G2d: the head anchor — speech places from here -->
  <circle class="c-mouth" cx="86" cy="44" r="0.1" fill="none" stroke="none" aria-hidden="true"/>
</svg>
