<svg xmlns="http://www.w3.org/2000/svg" viewBox="0 0 100 100">
  <!-- dog, acknowledging: ears lifted, tail up mid-thump — still your dog. -->
  <defs>
    <filter id="rough-dog-acknowledging" x="-10%" y="-10%" width="120%" height="120%">
      <feTurbulence type="fractalNoise" baseFrequency="3.4" numOctaves="3" seed="4" result="n"/>
      <feDisplacementMap in="SourceGraphic" in2="n" scale="0.18" xChannelSelector="R" yChannelSelector="G"/>
    </filter>
  </defs>
  <g filter="url(#rough-dog-acknowledging)">

    <path d="M25 84 L75 84" stroke="#3a3626" stroke-width="1.6" fill="none" stroke-linecap="round" opacity=".5"/>
    <path d="M32 84 C28 68 34 56 46 52 C56 48 66 52 70 62 C74 71.5 70.5 80 66.5 84" stroke="#3a3626" stroke-width="1.6" fill="none" stroke-linecap="round"/>
    <g class="c-head">
      <path d="M46 52 C42 40 48 31.5 58 31.5 C68 31.5 72 42 66 52" stroke="#3a3626" stroke-width="1.6" fill="none" stroke-linecap="round"/>
      <path class="c-ear" d="M47 36 C42.5 34.5 39 37.5 39.5 43" stroke="#3a3626" stroke-width="1.6" fill="#a9876a" fill-opacity=".5" stroke-linecap="round"/>
      <path class="c-ear-far" d="M67.5 36 C72 34.5 75 37.5 74.5 43" stroke="#3a3626" stroke-width="1.6" fill="#a9876a" fill-opacity=".5" stroke-linecap="round"/>
      <g class="c-eyes"><circle cx="53.5" cy="42.5" r="1.6" fill="#3a3626"/><circle cx="62" cy="42" r="1.6" fill="#3a3626"/></g>
      <path d="M56.5 47 C55 47 54 48 54 49.5 C56 50.5 60 50.5 61.5 49.5 C61.5 48 60.5 47 58.5 47Z" fill="#3a3626"/>
      <path d="M58 50 L58 52.5 M55.5 53.5 c2 2 4 2 5.5 0" stroke="#3a3626" stroke-width="1.2" fill="none" stroke-linecap="round"/>
    </g>
    <path d="M44 68 C42.5 73 42.5 79 44 84 M56 68 C57.5 73 57.5 79 56.5 84" stroke="#3a3626" stroke-width="1.4" fill="none" stroke-linecap="round" opacity=".7"/>
    <g class="c-tail"><path d="M66.5 84 C74 78 78 70 76 62" stroke="#3a3626" stroke-width="1.6" fill="none" stroke-linecap="round"/></g>
    <path d="M80 66 c2 -1 3 -3 3 -5 M81 72 c2.5 -.5 4 -2 4.5 -4" stroke="#3a3626" stroke-width="1" fill="none" stroke-linecap="round" opacity=".4"/>

  </g>
</svg>
