<svg xmlns="http://www.w3.org/2000/svg" viewBox="0 0 100 100">
  <!-- cat, idle-young: a kitten: big head, oversized point ears, stubby up-tail, tiny sit. -->
  <defs>
    <filter id="rough-cat-idle-young" x="-10%" y="-10%" width="120%" height="120%">
      <feTurbulence type="fractalNoise" baseFrequency="3.4" numOctaves="3" seed="4" result="n"/>
      <feDisplacementMap in="SourceGraphic" in2="n" scale="0.18" xChannelSelector="R" yChannelSelector="G"/>
    </filter>
  </defs>
  <g filter="url(#rough-cat-idle-young)">

    <path class="c-ground" d="M32 80 L70 80" stroke="#3a3626" stroke-width="1.6" fill="none" stroke-linecap="round" opacity=".5"/>
    <path d="M58 56 C62 60 64 65 65 70 C68 72 69 76 66.5 79 C64 81 58 81 54 80" stroke="#3a3626" stroke-width="1.6" fill="none" stroke-linecap="round"/>
    <path d="M48 57 C46.5 62 46 67 46 71" stroke="#3a3626" stroke-width="1.6" fill="none" stroke-linecap="round"/>
    <path d="M46 71 C45.5 75 45.5 78 46 80" stroke="#3a3626" stroke-width="1.5" fill="none" stroke-linecap="round"/>
    <path d="M43 80 L49 80" stroke="#3a3626" stroke-width="1.6" stroke-linecap="round"/>
    <g class="c-paw">
      <path d="M51.5 73 C51.3 76 51.3 78 51.5 80" stroke="#3a3626" stroke-width="1.5" fill="none" stroke-linecap="round"/>
      <path d="M50 80 L56 80" stroke="#3a3626" stroke-width="1.6" stroke-linecap="round"/>
    </g>
    <g class="c-head">
      <path d="M45 54 C41 42 47 33 56 33.5 C65 34 69.5 43 65 54" stroke="#3a3626" stroke-width="1.6" fill="none" stroke-linecap="round"/>
      <path class="c-ear" d="M46.5 41 L42.5 28 L52 35" stroke="#3a3626" stroke-width="1.6" fill="#5a4a3a" stroke-linejoin="round"/>
      <path class="c-ear-far" d="M61.5 37.5 L67.5 26 L57.5 33.5" stroke="#3a3626" stroke-width="1.6" fill="#5a4a3a" stroke-linejoin="round"/>
      <g class="c-eyes"><path d="M55 45 l3 0 M62 45.5 l2.6 0" stroke="#3a3626" stroke-width="1.6" stroke-linecap="round"/></g>
      <path d="M50 50 C47.5 50 46.2 51.3 46.2 53" stroke="#5a4a3a" stroke-width="2.1" fill="none" stroke-linecap="round"/>
    </g>
    <path d="M66.5 79 C71 76.5 73 72 71 68.5" stroke="#3a3626" stroke-width="1.6" fill="none" stroke-linecap="round"/>
    <path class="c-tail-tip" d="M71 68.5 C72.5 66 71.5 63.5 69 63" stroke="#5a4a3a" stroke-width="2.3" fill="none" stroke-linecap="round"/>
    <path d="M49 60 c-2.5 1 -3.5 2.8 -3.5 5" stroke="#3a3626" stroke-width="1.2" fill="none" stroke-linecap="round" opacity=".55"/>

  </g>
  <!-- item 98: where speech leaves the face; scraps and bubbles anchor here -->
  <circle class="c-mouth" cx="46.5" cy="52.5" r="0.1" fill="none" stroke="none" aria-hidden="true"/>
</svg>
